<svg width="24" height="24" viewBox="0 0 24 24" fill="none" xmlns="http://www.w3.org/2000/svg">
<path fill-rule="evenodd" clip-rule="evenodd" d="M1.36621 23.2499C0.744891 23.2499 0.241211 22.7462 0.241211 22.1249C0.241211 21.9451 0.284335 21.7678 0.366966 21.6081L11.0008 1.0493C11.2863 0.497434 11.965 0.281458 12.5169 0.566907C12.7238 0.6739 12.8923 0.842449 12.9993 1.0493L23.6331 21.6081C23.9186 22.1599 23.7026 22.8387 23.1507 23.1242C22.991 23.2068 22.8137 23.2499 22.6339 23.2499H1.36621ZM12.0001 2.38239L1.98237 21.7499H22.0177L12.0001 2.38239ZM12.0001 8.24991C12.4143 8.24991 12.75 8.5857 12.75 8.99991V14.9999C12.75 15.4141 12.4143 15.7499 12.0001 15.7499C11.5858 15.7499 11.2501 15.4141 11.2501 14.9999V8.99991C11.2501 8.5857 11.5858 8.24991 12.0001 8.24991ZM12.0001 19.8749C11.3787 19.8749 10.8751 19.3712 10.8751 18.7499C10.8751 18.1286 11.3787 17.6249 12.0001 17.6249C12.6214 17.6249 13.125 18.1286 13.125 18.7499C13.125 19.3712 12.6214 19.8749 12.0001 19.8749Z" fill="#BC4338"/>
</svg>
