<svg width="16" height="16" viewBox="0 0 16 16" fill="none" xmlns="http://www.w3.org/2000/svg">
<path fill-rule="evenodd" clip-rule="evenodd" d="M5 1.5C5 0.671573 5.67157 0 6.5 0H9.5C10.3284 0 11 0.671573 11 1.5V2H14.5C14.7761 2 15 2.22386 15 2.5C15 2.77614 14.7761 3 14.5 3H1.5C1.22386 3 1 2.77614 1 2.5C1 2.22386 1.22386 2 1.5 2H5V1.5ZM10 1.5V2H6V1.5C6 1.22386 6.22386 1 6.5 1H9.5C9.77614 1 10 1.22386 10 1.5Z" fill="#BC4338"/>
<path d="M2.99798 4.4547C2.97298 4.17969 2.72977 3.97702 2.45476 4.00202C2.17976 4.02703 1.97708 4.27023 2.00209 4.54524L2.96075 15.0905C3.00757 15.6056 3.43944 16 3.95664 16H12.0434C12.5606 16 12.9925 15.6056 13.0393 15.0905L13.998 4.54524C14.023 4.27023 13.8203 4.02703 13.5453 4.00202C13.2703 3.97702 13.0271 4.17969 13.0021 4.4547L12.0434 15H3.95664L2.99798 4.4547Z" fill="#BC4338"/>
<path d="M7 5.5V13H6V5.5H7Z" fill="#BC4338"/>
<path d="M10 13V5.5H9V13H10Z" fill="#BC4338"/>
</svg>
